<svg width="38" height="33" viewBox="0 0 38 33" fill="none" xmlns="http://www.w3.org/2000/svg">
<rect x="1.82812" y="2.29395" width="34.0457" height="28.1681" fill="white"/>
<path d="M0.398438 28.1379C0.398438 29.3799 0.891816 30.571 1.77003 31.4492C2.64825 32.3274 3.83937 32.8208 5.08136 32.8208H33.1789C34.4209 32.8208 35.612 32.3274 36.4903 31.4492C37.3685 30.571 37.8619 29.3799 37.8619 28.1379V5.50373C37.8619 4.26174 37.3685 3.07062 36.4903 2.1924C35.612 1.31418 34.4209 0.820801 33.1789 0.820801H5.08136C3.83937 0.820801 2.64825 1.31418 1.77003 2.1924C0.891816 3.07062 0.398438 4.26174 0.398438 5.50373L0.398438 28.1379ZM23.0326 4.72324C23.0253 5.00048 22.9421 5.27042 22.7922 5.50373C22.662 5.73998 22.4708 5.93698 22.2385 6.07417C22.0062 6.21137 21.7414 6.28374 21.4716 6.28374C21.2018 6.28374 20.937 6.21137 20.7047 6.07417C20.4725 5.93698 20.2812 5.73998 20.151 5.50373C20.0011 5.27042 19.9179 5.00048 19.9106 4.72324C19.9177 4.44596 20.0008 4.17595 20.151 3.94275C20.2812 3.7065 20.4725 3.5095 20.7047 3.37231C20.937 3.23511 21.2018 3.16274 21.4716 3.16274C21.7414 3.16274 22.0062 3.23511 22.2385 3.37231C22.4708 3.5095 22.662 3.7065 22.7922 3.94275C22.9424 4.17595 23.0255 4.44596 23.0326 4.72324ZM28.496 4.72324C28.4887 5.00048 28.4056 5.27042 28.2556 5.50373C28.1254 5.73998 27.9342 5.93698 27.7019 6.07417C27.4696 6.21137 27.2048 6.28374 26.935 6.28374C26.6653 6.28374 26.4004 6.21137 26.1681 6.07417C25.9359 5.93698 25.7447 5.73998 25.6144 5.50373C25.4645 5.27042 25.3813 5.00048 25.374 4.72324C25.3811 4.44596 25.4643 4.17595 25.6144 3.94275C25.7447 3.7065 25.9359 3.5095 26.1681 3.37231C26.4004 3.23511 26.6653 3.16274 26.935 3.16274C27.2048 3.16274 27.4696 3.23511 27.7019 3.37231C27.9342 3.5095 28.1254 3.7065 28.2556 3.94275C28.4058 4.17595 28.4889 4.44596 28.496 4.72324ZM33.9594 4.72324C33.9521 5.00048 33.869 5.27042 33.719 5.50373C33.5888 5.73998 33.3976 5.93698 33.1653 6.07417C32.933 6.21137 32.6682 6.28374 32.3984 6.28374C32.1287 6.28374 31.8638 6.21137 31.6316 6.07417C31.3993 5.93698 31.2081 5.73998 31.0779 5.50373C30.9279 5.27042 30.8448 5.00048 30.8375 4.72324C30.8445 4.44596 30.9277 4.17595 31.0779 3.94275C31.2101 3.70823 31.4018 3.51264 31.6336 3.37564C31.8654 3.23864 32.1292 3.16505 32.3984 3.16226C32.6983 3.16363 32.9915 3.25136 33.2429 3.41496C33.4942 3.57857 33.6931 3.81112 33.8158 4.0848C33.9088 4.28488 33.9578 4.5026 33.9594 4.72324ZM3.52039 9.01436C3.52039 8.91086 3.5615 8.8116 3.63469 8.73842C3.70787 8.66523 3.80713 8.62412 3.91063 8.62412H34.3497C34.4532 8.62412 34.5524 8.66523 34.6256 8.73842C34.6988 8.8116 34.7399 8.91086 34.7399 9.01436V28.1363C34.7399 28.5503 34.5754 28.9474 34.2827 29.2401C33.99 29.5328 33.5929 29.6973 33.1789 29.6973H5.08136C4.66737 29.6973 4.27033 29.5328 3.97759 29.2401C3.68485 28.9474 3.52039 28.5503 3.52039 28.1363V9.01436Z" fill="#4A3AFF"/>
<path d="M11.0013 23.7784C11.294 24.071 11.691 24.2354 12.1049 24.2354C12.5188 24.2354 12.9158 24.071 13.2085 23.7784L17.111 19.876C17.4036 19.5832 17.568 19.1863 17.568 18.7724C17.568 18.3584 17.4036 17.9615 17.111 17.6687L13.2085 13.7663C12.9141 13.482 12.5198 13.3246 12.1105 13.3282C11.7013 13.3317 11.3097 13.4959 11.0203 13.7853C10.7309 14.0747 10.5667 14.4663 10.5632 14.8755C10.5596 15.2848 10.717 15.6791 11.0013 15.9735L13.5239 18.4961C13.5602 18.5323 13.589 18.5754 13.6087 18.6228C13.6284 18.6702 13.6385 18.721 13.6385 18.7724C13.6385 18.8237 13.6284 18.8745 13.6087 18.9219C13.589 18.9693 13.5602 19.0124 13.5239 19.0487L11.0013 21.5712C10.7087 21.8639 10.5443 22.2609 10.5443 22.6748C10.5443 23.0887 10.7087 23.4857 11.0013 23.7784Z" fill="#4A3AFF"/>
<path d="M20.6912 24.2357H26.9351C27.3491 24.2357 27.7461 24.0713 28.0389 23.7785C28.3316 23.4858 28.4961 23.0887 28.4961 22.6747C28.4961 22.2607 28.3316 21.8637 28.0389 21.571C27.7461 21.2782 27.3491 21.1138 26.9351 21.1138H20.6912C20.2772 21.1138 19.8802 21.2782 19.5874 21.571C19.2947 21.8637 19.1302 22.2607 19.1302 22.6747C19.1302 23.0887 19.2947 23.4858 19.5874 23.7785C19.8802 24.0713 20.2772 24.2357 20.6912 24.2357Z" fill="#4A3AFF"/>
</svg>
