<svg width="36" height="29" viewBox="0 0 36 29" fill="none" xmlns="http://www.w3.org/2000/svg">
<path d="M35.296 12.7659C35.2897 11.6687 34.9455 10.6001 34.3103 9.70542C33.675 8.81078 32.7795 8.1336 31.7456 7.76604C31.5439 7.69311 31.3276 7.66987 31.115 7.69829C30.9023 7.72672 30.6997 7.80597 30.5242 7.92933C30.3487 8.0527 30.2056 8.21654 30.1068 8.40698C30.0081 8.59742 29.9568 8.80885 29.9571 9.02336L29.9758 19.2314C29.9763 19.4454 30.0283 19.6562 30.1274 19.846C30.2265 20.0357 30.3697 20.1988 30.5451 20.3216C30.7205 20.4443 30.9228 20.5231 31.135 20.5513C31.3472 20.5794 31.563 20.5561 31.7643 20.4833C32.8002 20.1107 33.6956 19.4269 34.3279 18.5256C34.9601 17.6243 35.2983 16.5497 35.296 15.4487V12.7659Z" fill="#4A3AFF"/>
<path d="M28.8322 1.3689C28.8322 1.03887 28.701 0.722353 28.4677 0.488985C28.2343 0.255617 27.9178 0.124512 27.5878 0.124512C27.2577 0.124512 26.9412 0.255617 26.7078 0.488985C26.4745 0.722353 26.3434 1.03887 26.3434 1.3689V2.33206L3.75273 9.62542C3.62756 9.66595 3.51845 9.74511 3.44109 9.85154C3.36372 9.95797 3.32209 10.0862 3.32217 10.2178V17.6306C3.32217 17.763 3.3644 17.8919 3.44273 17.9987C3.52106 18.1054 3.6314 18.1844 3.75771 18.2242L5.37542 18.7319C5.50173 18.7716 5.61207 18.8506 5.6904 18.9573C5.76873 19.0641 5.81096 19.193 5.81095 19.3254V22.5496C5.81917 24.03 6.41257 25.447 7.46166 26.4914C8.51075 27.5358 9.93036 28.1229 11.4107 28.1245H11.4368C12.9206 28.116 14.3405 27.5195 15.3852 26.4659C16.43 25.4122 17.0144 23.9874 17.0105 22.5036V22.3792L26.3434 25.3035V26.2567C26.3434 26.5867 26.4745 26.9032 26.7078 27.1366C26.9412 27.37 27.2577 27.5011 27.5878 27.5011C27.9178 27.5011 28.2343 27.37 28.4677 27.1366C28.701 26.9032 28.8322 26.5867 28.8322 26.2567V1.3689ZM14.5217 22.5098C14.5236 22.9184 14.4451 23.3233 14.2906 23.7015C14.1361 24.0797 13.9086 24.4237 13.6211 24.714C13.3336 25.0043 12.9917 25.2351 12.615 25.3932C12.2383 25.5514 11.8342 25.6338 11.4256 25.6357H11.4107C10.5891 25.6357 9.80078 25.3107 9.21792 24.7316C8.63507 24.1525 8.30499 23.3663 8.29973 22.5447V20.4952C8.29973 20.3975 8.32272 20.3011 8.36687 20.214C8.41101 20.1268 8.47505 20.0513 8.55381 19.9935C8.63258 19.9357 8.72384 19.8973 8.82022 19.8813C8.9166 19.8653 9.01539 19.8723 9.10858 19.9016L14.0861 21.4621C14.2124 21.5018 14.3228 21.5808 14.4011 21.6875C14.4795 21.7943 14.5217 21.9232 14.5217 22.0556V22.5098Z" fill="#4A3AFF"/>
<path d="M3.32112 9.64318C3.32112 9.30904 3.17621 8.98858 2.91827 8.75231C2.66033 8.51604 2.31049 8.3833 1.94572 8.3833C1.58094 8.3833 1.2311 8.51604 0.973159 8.75231C0.715221 8.98858 0.570313 9.30904 0.570312 9.64318L0.57719 18.4623C0.57719 18.6278 0.612765 18.7916 0.681886 18.9445C0.751006 19.0973 0.852318 19.2362 0.980036 19.3532C1.10775 19.4702 1.25938 19.563 1.42625 19.6263C1.59312 19.6896 1.77197 19.7222 1.95259 19.7222H1.94572C2.30485 19.7223 2.64977 19.5937 2.90678 19.364C3.16379 19.1342 3.3125 18.8214 3.32112 18.4926V9.64318Z" fill="white"/>
</svg>
