<svg width="40" height="42" viewBox="0 0 40 42" fill="none" xmlns="http://www.w3.org/2000/svg">
<circle cx="20.0665" cy="20.8807" r="8.78843" fill="white"/>
<path fill-rule="evenodd" clip-rule="evenodd" d="M37.3246 24.3919C38.0642 24.7848 38.6348 25.4052 39.0363 26.0255C39.8182 27.3076 39.7548 28.8792 38.994 30.2646L37.5148 32.746C36.7329 34.0695 35.2747 34.8966 33.7743 34.8966C33.0347 34.8966 32.2105 34.6898 31.5343 34.2762C30.9848 33.9247 30.3509 33.8006 29.6746 33.8006C27.5825 33.8006 25.8285 35.5169 25.7651 37.5641C25.7651 39.9421 23.8209 41.8032 21.3907 41.8032H18.5167C16.0653 41.8032 14.1211 39.9421 14.1211 37.5641C14.0788 35.5169 12.3248 33.8006 10.2327 33.8006C9.53534 33.8006 8.90137 33.9247 8.37306 34.2762C7.69682 34.6898 6.85152 34.8966 6.13301 34.8966C4.61147 34.8966 3.15333 34.0695 2.37143 32.746L0.913285 30.2646C0.131383 28.9205 0.0891179 27.3076 0.87102 26.0255C1.20914 25.4052 1.84312 24.7848 2.56162 24.3919C3.15333 24.1024 3.53372 23.6268 3.89297 23.0685C4.94959 21.2902 4.31562 18.9535 2.51936 17.8989C0.427238 16.7202 -0.249002 14.0941 0.95555 12.0469L2.37143 9.60684C3.59711 7.55968 6.21754 6.83593 8.33079 8.03528C10.1693 9.02785 12.5573 8.36614 13.635 6.60847C13.9732 6.02947 14.1634 5.40912 14.1211 4.78876C14.0788 3.9823 14.3113 3.2172 14.7128 2.59685C15.4947 1.31478 16.9106 0.487646 18.4533 0.446289H21.4329C22.9967 0.446289 24.4126 1.31478 25.1945 2.59685C25.5749 3.2172 25.8285 3.9823 25.7651 4.78876C25.7228 5.40912 25.913 6.02947 26.2512 6.60847C27.3289 8.36614 29.7169 9.02785 31.5765 8.03528C33.6687 6.83593 36.3102 7.55968 37.5148 9.60684L38.9306 12.0469C40.1563 14.0941 39.4801 16.7202 37.3668 17.8989C35.5706 18.9535 34.9366 21.2902 36.0144 23.0685C36.3525 23.6268 36.7329 24.1024 37.3246 24.3919ZM13.974 21.1449C13.974 24.3914 16.6578 26.9762 19.9756 26.9762C23.2934 26.9762 25.9138 24.3914 25.9138 21.1449C25.9138 17.8984 23.2934 15.2929 19.9756 15.2929C16.6578 15.2929 13.974 17.8984 13.974 21.1449Z" fill="#4A3AFF"/>
</svg>
