<svg width="39" height="33" viewBox="0 0 39 33" fill="none" xmlns="http://www.w3.org/2000/svg">
<rect x="2.14685" y="2.38574" width="34.0457" height="28.1681" fill="white"/>
<rect x="7.31476" y="10.8428" width="23.7094" height="5.66188" rx="0.680278" fill="#4A3AFF"/>
<rect x="7.31476" y="19.2759" width="10.8407" height="7.31969" rx="0.680278" fill="#4A3AFF"/>
<rect x="20.1839" y="19.2759" width="10.8407" height="2.30835" rx="0.680278" fill="#4A3AFF"/>
<rect x="20.1839" y="24.2876" width="10.8407" height="2.30835" rx="0.680278" fill="#4A3AFF"/>
<path d="M0.718201 28.2297C0.718201 29.4717 1.21158 30.6628 2.0898 31.541C2.96802 32.4192 4.15914 32.9126 5.40113 32.9126H33.4987C34.7407 32.9126 35.9318 32.4192 36.81 31.541C37.6882 30.6628 38.1816 29.4717 38.1816 28.2297V5.59552C38.1816 4.35353 37.6882 3.16241 36.81 2.2842C35.9318 1.40598 34.7407 0.912598 33.4987 0.912598H5.40113C4.15914 0.912598 2.96802 1.40598 2.0898 2.2842C1.21158 3.16241 0.718201 4.35353 0.718201 5.59552L0.718201 28.2297ZM23.3523 4.81504C23.3451 5.09228 23.2619 5.36222 23.112 5.59552C22.9817 5.83178 22.7905 6.02878 22.5582 6.16597C22.326 6.30317 22.0611 6.37554 21.7914 6.37554C21.5216 6.37554 21.2568 6.30317 21.0245 6.16597C20.7922 6.02878 20.601 5.83178 20.4708 5.59552C20.3208 5.36222 20.2377 5.09228 20.2304 4.81504C20.2374 4.53775 20.3206 4.26775 20.4708 4.03455C20.601 3.79829 20.7922 3.6013 21.0245 3.4641C21.2568 3.32691 21.5216 3.25454 21.7914 3.25454C22.0611 3.25454 22.326 3.32691 22.5582 3.4641C22.7905 3.6013 22.9817 3.79829 23.112 4.03455C23.2621 4.26775 23.3453 4.53775 23.3523 4.81504ZM28.8158 4.81504C28.8085 5.09228 28.7253 5.36222 28.5754 5.59552C28.4452 5.83178 28.2539 6.02878 28.0217 6.16597C27.7894 6.30317 27.5246 6.37554 27.2548 6.37554C26.985 6.37554 26.7202 6.30317 26.4879 6.16597C26.2556 6.02878 26.0644 5.83178 25.9342 5.59552C25.7842 5.36222 25.7011 5.09228 25.6938 4.81504C25.7009 4.53775 25.784 4.26775 25.9342 4.03455C26.0644 3.79829 26.2556 3.6013 26.4879 3.4641C26.7202 3.32691 26.985 3.25454 27.2548 3.25454C27.5246 3.25454 27.7894 3.32691 28.0217 3.4641C28.2539 3.6013 28.4452 3.79829 28.5754 4.03455C28.7255 4.26775 28.8087 4.53775 28.8158 4.81504ZM34.2792 4.81504C34.2719 5.09228 34.1887 5.36222 34.0388 5.59552C33.9086 5.83178 33.7173 6.02878 33.4851 6.16597C33.2528 6.30317 32.988 6.37554 32.7182 6.37554C32.4484 6.37554 32.1836 6.30317 31.9513 6.16597C31.7191 6.02878 31.5278 5.83178 31.3976 5.59552C31.2477 5.36222 31.1645 5.09228 31.1572 4.81504C31.1643 4.53775 31.2474 4.26775 31.3976 4.03455C31.5299 3.80002 31.7216 3.60444 31.9534 3.46744C32.1852 3.33044 32.449 3.25685 32.7182 3.25406C33.0181 3.25542 33.3113 3.34315 33.5626 3.50676C33.814 3.67036 34.0129 3.90292 34.1356 4.1766C34.2286 4.37667 34.2776 4.5944 34.2792 4.81504ZM3.84015 9.10616C3.84015 9.00266 3.88127 8.9034 3.95445 8.83021C4.02764 8.75703 4.1269 8.71591 4.2304 8.71591H34.6694C34.7729 8.71591 34.8722 8.75703 34.9454 8.83021C35.0185 8.9034 35.0597 9.00266 35.0597 9.10616V28.2281C35.0597 28.6421 34.8952 29.0391 34.6025 29.3319C34.3097 29.6246 33.9127 29.7891 33.4987 29.7891H5.40113C4.98713 29.7891 4.59009 29.6246 4.29735 29.3319C4.00461 29.0391 3.84015 28.6421 3.84015 28.2281V9.10616Z" fill="#4A3AFF"/>
</svg>
